<svg width="20" height="20" fill="none" xmlns="http://www.w3.org/2000/svg"><path d="M13.127 4.537a15.65 15.65 0 00-5.874 0c-.852.19-1.925 1.217-2.134 2.044-.35 1.6-.35 3.22 0 4.82.21.827 1.282 1.854 2.134 2.044a.08.08 0 01.066.08v2.342a.13.13 0 00.225.09l1.113-1.142 1.046-1.074a.08.08 0 01.06-.024c1.123.031 2.248-.06 3.364-.272.852-.19 1.925-1.217 2.134-2.044.35-1.6.35-3.22 0-4.82-.21-.827-1.282-1.854-2.134-2.044zm.03 6.983c-.171.362-.42.663-.777.856-.101.054-.222.071-.336.107-.13-.04-.256-.067-.372-.115-1.201-.499-2.308-1.142-3.184-2.128C7.99 9.68 7.6 9.046 7.27 8.376c-.156-.318-.288-.648-.422-.976-.122-.299.058-.608.248-.833a1.94 1.94 0 01.656-.493c.194-.093.385-.04.526.125.306.355.587.728.815 1.14.14.253.102.563-.152.735-.062.042-.118.091-.175.138a.575.575 0 00-.133.14.382.382 0 00-.025.335c.313.86.84 1.529 1.705 1.889.139.057.278.124.437.106.267-.032.354-.325.541-.478a.51.51 0 01.614-.026c.197.124.388.258.578.394.186.133.372.262.544.414.166.146.222.337.13.534zm-1.554-2.8a.24.24 0 01-.016-.001c-.12-.004-.186-.075-.199-.19-.01-.084-.017-.17-.037-.251a.707.707 0 00-.26-.41.68.68 0 00-.213-.102c-.096-.028-.197-.02-.293-.044-.104-.025-.162-.11-.146-.208a.189.189 0 01.2-.152c.609.044 1.045.36 1.107 1.077.004.05.01.104-.002.152a.157.157 0 01-.14.129zm-.378-1.641a2.144 2.144 0 00-.595-.183c-.09-.014-.18-.023-.27-.036-.109-.015-.167-.085-.162-.192a.17.17 0 01.188-.167c.36.02.71.098 1.03.268.652.346 1.025.89 1.134 1.619.005.033.012.065.015.099.006.081.01.163.016.27-.002.02-.004.067-.015.11-.042.158-.281.178-.336.018a.476.476 0 01-.02-.151 1.9 1.9 0 00-.24-.956 1.778 1.778 0 00-.745-.7zm2.015 2.25c-.126.001-.183-.104-.191-.217-.016-.224-.027-.449-.058-.67a2.809 2.809 0 00-2.262-2.348c-.176-.031-.355-.04-.533-.058-.112-.012-.26-.019-.284-.159-.021-.117.078-.21.19-.216h.09c1.51.042.093.003.004 0 1.57.046 2.86 1.089 3.136 2.642.047.264.064.535.085.804.009.113-.055.22-.177.222z" fill="#FDD444"/><path d="M.38 0v19.62H20V0H.38zm16.015 11.658l-.004.015c-.313 1.267-1.726 2.627-3.024 2.91l-.014.002a16.858 16.858 0 01-4.096.273l-1.433 1.49a.569.569 0 01-.978-.394V14.54c-1.25-.357-2.557-1.654-2.858-2.867l-.003-.015a12.38 12.38 0 010-5.334l.003-.015c.314-1.267 1.727-2.627 3.024-2.91l.015-.003c2.099-.4 4.227-.4 6.326 0l.014.003c1.298.283 2.71 1.643 3.024 2.91l.004.015c.387 1.77.387 3.564 0 5.334z" fill="#FDD444"/></svg>