<svg width="21" height="20" fill="none" xmlns="http://www.w3.org/2000/svg"><path d="M10.405 4.104a5.696 5.696 0 00-5.69 5.69c0 1.093.311 2.155.899 3.07l.141.22-.553 1.965 2.033-.523.21.128a5.68 5.68 0 002.96.83 5.696 5.696 0 005.69-5.69 5.696 5.696 0 00-5.69-5.69zm3.49 7.439l-.071.331c-.08.374-.303.705-.625.911-.407.26-.934.389-1.605.199-2.08-.588-3.257-1.966-3.889-2.827-.631-.861-.875-1.722-.717-2.425.105-.472.45-.834.666-1.021a.538.538 0 01.382-.13l.445.023a.23.23 0 01.199.14l.648 1.515a.23.23 0 01-.038.242l-.564.652a.17.17 0 00-.021.19c.742 1.43 2.095 1.997 2.5 2.14a.169.169 0 00.19-.057l.59-.765a.23.23 0 01.278-.069l1.503.693a.23.23 0 01.129.258z" fill="#FDD444"/><path d="M.587 0v19.62h19.62V0H.587zm9.819 16.646a6.844 6.844 0 01-3.35-.873l-3.52.906.96-3.414a6.831 6.831 0 01-.943-3.471 6.86 6.86 0 016.853-6.853 6.86 6.86 0 016.852 6.853 6.86 6.86 0 01-6.852 6.852z" fill="#FDD444"/></svg>