<svg width="20" height="20" fill="none" xmlns="http://www.w3.org/2000/svg"><g clip-path="url(#clip0)"><path d="M9.81 7.86a1.953 1.953 0 00-1.951 1.95c0 1.076.875 1.951 1.95 1.951a1.954 1.954 0 001.952-1.951c0-1.076-.875-1.95-1.951-1.95zm0 0a1.953 1.953 0 00-1.951 1.95c0 1.076.875 1.951 1.95 1.951a1.954 1.954 0 001.952-1.951c0-1.076-.875-1.95-1.951-1.95zm3.25-3.182h-6.5A1.884 1.884 0 004.678 6.56v6.5c0 1.038.844 1.882 1.882 1.882h6.5a1.884 1.884 0 001.882-1.882v-6.5a1.884 1.884 0 00-1.882-1.882zm-3.25 8.51A3.383 3.383 0 016.43 9.81a3.383 3.383 0 013.38-3.38 3.383 3.383 0 013.379 3.379 3.383 3.383 0 01-3.38 3.379zm3.487-6.058a.8.8 0 010-1.6.8.8 0 010 1.6zm-3.487.73a1.953 1.953 0 00-1.951 1.95c0 1.076.875 1.951 1.95 1.951a1.954 1.954 0 001.952-1.951c0-1.076-.875-1.95-1.951-1.95zm3.25-3.182h-6.5A1.884 1.884 0 004.678 6.56v6.5c0 1.038.844 1.882 1.882 1.882h6.5a1.884 1.884 0 001.882-1.882v-6.5a1.884 1.884 0 00-1.882-1.882zm-3.25 8.51A3.383 3.383 0 016.43 9.81a3.383 3.383 0 013.38-3.38 3.383 3.383 0 013.379 3.379 3.383 3.383 0 01-3.38 3.379zm3.487-6.058a.8.8 0 010-1.6.8.8 0 010 1.6zm-3.487.73a1.953 1.953 0 00-1.951 1.95c0 1.076.875 1.951 1.95 1.951a1.954 1.954 0 001.952-1.951c0-1.076-.875-1.95-1.951-1.95zM0 0v19.62h19.62V0H0zm16.37 13.06a3.313 3.313 0 01-3.31 3.31h-6.5a3.313 3.313 0 01-3.31-3.31v-6.5a3.313 3.313 0 013.31-3.31h6.5a3.313 3.313 0 013.31 3.31v6.5zm-3.31-8.382h-6.5A1.884 1.884 0 004.678 6.56v6.5c0 1.038.844 1.882 1.882 1.882h6.5a1.884 1.884 0 001.882-1.882v-6.5a1.884 1.884 0 00-1.882-1.882zm-3.25 8.51A3.383 3.383 0 016.43 9.81a3.383 3.383 0 013.38-3.38 3.383 3.383 0 013.379 3.379 3.383 3.383 0 01-3.38 3.379zm3.487-6.058a.8.8 0 010-1.6.8.8 0 010 1.6zm-3.487.73a1.953 1.953 0 00-1.951 1.95c0 1.076.875 1.951 1.95 1.951a1.954 1.954 0 001.952-1.951c0-1.076-.875-1.95-1.951-1.95zm0 0a1.953 1.953 0 00-1.951 1.95c0 1.076.875 1.951 1.95 1.951a1.954 1.954 0 001.952-1.951c0-1.076-.875-1.95-1.951-1.95zm0 0a1.953 1.953 0 00-1.951 1.95c0 1.076.875 1.951 1.95 1.951a1.954 1.954 0 001.952-1.951c0-1.076-.875-1.95-1.951-1.95zm3.25-3.182h-6.5A1.884 1.884 0 004.678 6.56v6.5c0 1.038.844 1.882 1.882 1.882h6.5a1.884 1.884 0 001.882-1.882v-6.5a1.884 1.884 0 00-1.882-1.882zm-3.25 8.51A3.383 3.383 0 016.43 9.81a3.383 3.383 0 013.38-3.38 3.383 3.383 0 013.379 3.379 3.383 3.383 0 01-3.38 3.379zm3.487-6.058a.8.8 0 010-1.6.8.8 0 010 1.6zm-3.487.73a1.953 1.953 0 00-1.951 1.95c0 1.076.875 1.951 1.95 1.951a1.954 1.954 0 001.952-1.951c0-1.076-.875-1.95-1.951-1.95zm0 0a1.953 1.953 0 00-1.951 1.95c0 1.076.875 1.951 1.95 1.951a1.954 1.954 0 001.952-1.951c0-1.076-.875-1.95-1.951-1.95zm0 0a1.953 1.953 0 00-1.951 1.95c0 1.076.875 1.951 1.95 1.951a1.954 1.954 0 001.952-1.951c0-1.076-.875-1.95-1.951-1.95zm3.25-3.182h-6.5A1.884 1.884 0 004.678 6.56v6.5c0 1.038.844 1.882 1.882 1.882h6.5a1.884 1.884 0 001.882-1.882v-6.5a1.884 1.884 0 00-1.882-1.882zm-3.25 8.51A3.383 3.383 0 016.43 9.81a3.383 3.383 0 013.38-3.38 3.383 3.383 0 013.379 3.379 3.383 3.383 0 01-3.38 3.379zm3.487-6.058a.8.8 0 010-1.6.8.8 0 010 1.6zm-3.487.73a1.953 1.953 0 00-1.951 1.95c0 1.076.875 1.951 1.95 1.951a1.954 1.954 0 001.952-1.951c0-1.076-.875-1.95-1.951-1.95z" fill="#FDD444"/></g><defs><clipPath id="clip0"><path fill="#fff" d="M0 0h19.62v19.62H0z"/></clipPath></defs></svg>