<svg width="20" height="20" fill="none" xmlns="http://www.w3.org/2000/svg"><circle cx="10" cy="10" r="10" fill="#FDD444"/><path d="M10.139 9.44c.433 0 .82.083 1.16.25.34.167.606.41.8.73.2.32.3.717.3 1.19 0 .773-.24 1.383-.72 1.83-.48.44-1.19.66-2.13.66-.374 0-.727-.033-1.06-.1a3.34 3.34 0 01-.86-.29v-1.3c.246.127.543.237.89.33.346.087.673.13.98.13.446 0 .786-.09 1.02-.27.24-.187.36-.473.36-.86 0-.72-.477-1.08-1.43-1.08-.187 0-.38.02-.58.06a6.57 6.57 0 00-.5.1l-.6-.32.27-3.64h3.87v1.28h-2.55l-.13 1.4c.113-.02.233-.04.36-.06.133-.027.316-.04.55-.04z" fill="#121D46"/></svg>