<svg width="41" height="37" fill="none" xmlns="http://www.w3.org/2000/svg"><path d="M13.21 24.024h21.784c.536 0 1.008-.356 1.155-.872l4.805-16.816a1.202 1.202 0 00-1.155-1.531h-29.36L9.582.94A1.203 1.203 0 008.408 0H1.201a1.201 1.201 0 100 2.402h6.244l4.336 19.516a3.609 3.609 0 00-2.172 3.307 3.608 3.608 0 003.604 3.603h21.781a1.201 1.201 0 100-2.402H13.213a1.202 1.202 0 01-.003-2.402zM38.206 7.207l-4.118 14.414H14.176L10.973 7.207h27.233zM12.012 32.432a3.608 3.608 0 003.603 3.603 3.608 3.608 0 003.604-3.603 3.608 3.608 0 00-3.604-3.604 3.608 3.608 0 00-3.603 3.604zm3.603-1.202a1.203 1.203 0 010 2.402 1.203 1.203 0 01-1.2-1.2c0-.663.538-1.202 1.2-1.202zm13.373 1.202a3.608 3.608 0 003.604 3.603 3.608 3.608 0 003.603-3.603 3.608 3.608 0 00-3.603-3.604 3.608 3.608 0 00-3.604 3.604zm3.604-1.202a1.203 1.203 0 010 2.402 1.203 1.203 0 01-1.201-1.2c0-.663.539-1.202 1.2-1.202z" fill="#121D46"/></svg>