<svg width="36" height="36" fill="none" xmlns="http://www.w3.org/2000/svg"><g clip-path="url(#clip0)"><path d="M17.73 14.204a3.53 3.53 0 00-3.527 3.526 3.531 3.531 0 003.527 3.527 3.53 3.53 0 003.526-3.527 3.53 3.53 0 00-3.526-3.526zm0 0a3.53 3.53 0 00-3.527 3.526 3.531 3.531 0 003.527 3.527 3.53 3.53 0 003.526-3.527 3.53 3.53 0 00-3.526-3.526zm5.874-5.75H11.856a3.405 3.405 0 00-3.401 3.402v11.748a3.405 3.405 0 003.4 3.401h11.75a3.405 3.405 0 003.4-3.4v-11.75a3.405 3.405 0 00-3.4-3.4zM17.73 23.838a6.114 6.114 0 01-6.107-6.107 6.114 6.114 0 016.107-6.107 6.114 6.114 0 016.107 6.107 6.114 6.114 0 01-6.107 6.107zm6.303-10.951a1.447 1.447 0 01-1.445-1.445c0-.797.648-1.445 1.445-1.445s1.445.648 1.445 1.445-.648 1.445-1.445 1.445zm-6.303 1.318a3.53 3.53 0 00-3.527 3.526 3.531 3.531 0 003.527 3.527 3.53 3.53 0 003.526-3.527 3.53 3.53 0 00-3.526-3.526zm5.874-5.75H11.856a3.405 3.405 0 00-3.401 3.402v11.748a3.405 3.405 0 003.4 3.401h11.75a3.405 3.405 0 003.4-3.4v-11.75a3.405 3.405 0 00-3.4-3.4zM17.73 23.838a6.114 6.114 0 01-6.107-6.107 6.114 6.114 0 016.107-6.107 6.114 6.114 0 016.107 6.107 6.114 6.114 0 01-6.107 6.107zm6.303-10.951a1.447 1.447 0 01-1.445-1.445c0-.797.648-1.445 1.445-1.445s1.445.648 1.445 1.445-.648 1.445-1.445 1.445zm-6.303 1.318a3.53 3.53 0 00-3.527 3.526 3.531 3.531 0 003.527 3.527 3.53 3.53 0 003.526-3.527 3.53 3.53 0 00-3.526-3.526zM0 0v35.46h35.46V0H0zm29.585 23.604a5.988 5.988 0 01-5.98 5.981h-11.75a5.988 5.988 0 01-5.98-5.98v-11.75a5.988 5.988 0 015.98-5.98h11.75a5.988 5.988 0 015.98 5.98v11.75zm-5.98-15.15h-11.75a3.405 3.405 0 00-3.4 3.402v11.748a3.405 3.405 0 003.4 3.401h11.75a3.405 3.405 0 003.4-3.4v-11.75a3.405 3.405 0 00-3.4-3.4zM17.73 23.838a6.114 6.114 0 01-6.107-6.107 6.114 6.114 0 016.107-6.107 6.114 6.114 0 016.107 6.107 6.114 6.114 0 01-6.107 6.107zm6.303-10.951a1.447 1.447 0 01-1.445-1.445c0-.797.648-1.445 1.445-1.445s1.445.648 1.445 1.445-.648 1.445-1.445 1.445zm-6.303 1.318a3.53 3.53 0 00-3.527 3.526 3.531 3.531 0 003.527 3.527 3.53 3.53 0 003.526-3.527 3.53 3.53 0 00-3.526-3.526zm0 0a3.53 3.53 0 00-3.527 3.526 3.531 3.531 0 003.527 3.527 3.53 3.53 0 003.526-3.527 3.53 3.53 0 00-3.526-3.526zm0 0a3.53 3.53 0 00-3.527 3.526 3.531 3.531 0 003.527 3.527 3.53 3.53 0 003.526-3.527 3.53 3.53 0 00-3.526-3.526zm5.874-5.75H11.856a3.405 3.405 0 00-3.401 3.402v11.748a3.405 3.405 0 003.4 3.401h11.75a3.405 3.405 0 003.4-3.4v-11.75a3.405 3.405 0 00-3.4-3.4zM17.73 23.838a6.114 6.114 0 01-6.107-6.107 6.114 6.114 0 016.107-6.107 6.114 6.114 0 016.107 6.107 6.114 6.114 0 01-6.107 6.107zm6.303-10.951a1.447 1.447 0 01-1.445-1.445c0-.797.648-1.445 1.445-1.445s1.445.648 1.445 1.445-.648 1.445-1.445 1.445zm-6.303 1.318a3.53 3.53 0 00-3.527 3.526 3.531 3.531 0 003.527 3.527 3.53 3.53 0 003.526-3.527 3.53 3.53 0 00-3.526-3.526zm0 0a3.53 3.53 0 00-3.527 3.526 3.531 3.531 0 003.527 3.527 3.53 3.53 0 003.526-3.527 3.53 3.53 0 00-3.526-3.526zm0 0a3.53 3.53 0 00-3.527 3.526 3.531 3.531 0 003.527 3.527 3.53 3.53 0 003.526-3.527 3.53 3.53 0 00-3.526-3.526zm5.874-5.75H11.856a3.405 3.405 0 00-3.401 3.402v11.748a3.405 3.405 0 003.4 3.401h11.75a3.405 3.405 0 003.4-3.4v-11.75a3.405 3.405 0 00-3.4-3.4zM17.73 23.838a6.114 6.114 0 01-6.107-6.107 6.114 6.114 0 016.107-6.107 6.114 6.114 0 016.107 6.107 6.114 6.114 0 01-6.107 6.107zm6.303-10.951a1.447 1.447 0 01-1.445-1.445c0-.797.648-1.445 1.445-1.445s1.445.648 1.445 1.445-.648 1.445-1.445 1.445zm-6.303 1.318a3.53 3.53 0 00-3.527 3.526 3.531 3.531 0 003.527 3.527 3.53 3.53 0 003.526-3.527 3.53 3.53 0 00-3.526-3.526z" fill="#FDD444"/></g><defs><clipPath id="clip0"><path fill="#fff" d="M0 0h35.46v35.46H0z"/></clipPath></defs></svg>