<svg width="36" height="36" fill="none" xmlns="http://www.w3.org/2000/svg"><path d="M23.578 8.2a28.286 28.286 0 00-10.616 0c-1.54.343-3.479 2.2-3.858 3.694-.63 2.89-.63 5.821 0 8.712.38 1.493 2.317 3.35 3.858 3.694h.001a.146.146 0 01.119.143v4.235c0 .211.258.316.405.162l2.012-2.064 1.89-1.941a.144.144 0 01.108-.044c2.03.056 4.064-.108 6.08-.491 1.541-.343 3.48-2.2 3.858-3.694.631-2.89.631-5.821 0-8.712-.378-1.494-2.316-3.351-3.857-3.694zm.053 12.621c-.308.654-.756 1.199-1.403 1.546-.183.098-.4.13-.607.193-.236-.072-.462-.12-.672-.207-2.172-.901-4.17-2.064-5.754-3.846-.9-1.014-1.606-2.158-2.202-3.369-.282-.574-.52-1.17-.763-1.763-.221-.54.105-1.1.448-1.507a3.538 3.538 0 011.185-.89c.35-.168.696-.072.952.226.553.641 1.061 1.316 1.473 2.06.253.458.183 1.017-.275 1.329-.112.075-.213.164-.317.25-.091.075-.177.15-.24.252a.69.69 0 00-.045.606c.565 1.554 1.518 2.762 3.082 3.413.25.104.501.225.79.192.482-.057.639-.586.977-.863.33-.27.753-.274 1.11-.049.356.226.701.468 1.044.713.337.24.673.475.984.748.299.264.401.609.233.966zm-2.804-5.063a.433.433 0 01-.03-.001c-.218-.008-.336-.136-.36-.344-.017-.152-.03-.306-.067-.454a1.278 1.278 0 00-.47-.74 1.23 1.23 0 00-.384-.184c-.175-.05-.356-.037-.53-.08-.189-.046-.293-.199-.264-.376a.341.341 0 01.36-.274c1.102.079 1.89.649 2.002 1.945.008.092.017.188-.003.276a.283.283 0 01-.254.232zm-.685-2.966a3.874 3.874 0 00-1.074-.33c-.162-.026-.326-.043-.489-.065-.197-.027-.302-.153-.293-.347a.305.305 0 01.34-.302c.652.037 1.282.178 1.862.485 1.179.624 1.852 1.61 2.049 2.925.009.06.023.119.027.178.012.148.018.296.03.49-.005.036-.007.12-.028.198-.075.286-.508.321-.607.033a.86.86 0 01-.035-.274c0-.602-.131-1.203-.435-1.727a3.215 3.215 0 00-1.347-1.264zm3.642 4.067c-.228.002-.33-.188-.345-.393-.03-.404-.05-.81-.105-1.21-.294-2.117-1.982-3.868-4.089-4.244-.317-.057-.641-.072-.962-.105-.203-.021-.469-.034-.514-.286-.038-.212.14-.38.342-.39.055-.004.11-.001.165-.001 2.729.076.167.006.008 0 2.837.083 5.167 1.967 5.667 4.774.085.479.116.968.153 1.454.016.204-.1.398-.32.4z" fill="#FDD444"/><path d="M.54 0v35.46H36V0H.54zm28.945 21.07l-.007.027c-.567 2.29-3.12 4.747-5.466 5.259l-.026.005a30.47 30.47 0 01-5.716.542c-.562 0-1.124-.017-1.686-.049l-2.59 2.693c-.64.667-1.768.213-1.768-.712v-2.557c-2.258-.644-4.621-2.989-5.164-5.18l-.007-.029c-.7-3.198-.7-6.44 0-9.639l.007-.028c.567-2.29 3.12-4.747 5.465-5.258l.027-.006a30.37 30.37 0 0111.432 0l.026.006c2.346.511 4.9 2.968 5.466 5.258l.007.028c.7 3.198.7 6.441 0 9.64z" fill="#FDD444"/></svg>