<svg width="37" height="36" fill="none" xmlns="http://www.w3.org/2000/svg"><path d="M18.44 7.417c-5.671 0-10.285 4.613-10.285 10.283 0 1.976.562 3.895 1.624 5.549l.255.398-1 3.552 3.676-.946.379.231c1.607.981 3.457 1.5 5.35 1.5 5.67 0 10.284-4.613 10.284-10.284 0-5.67-4.613-10.284-10.284-10.284zm6.305 13.444l-.128.6a2.595 2.595 0 01-1.129 1.646c-.735.47-1.689.702-2.9.359-3.761-1.063-5.888-3.553-7.03-5.11-1.14-1.556-1.581-3.112-1.296-4.383.191-.852.814-1.506 1.204-1.844a.972.972 0 01.69-.237l.804.044a.417.417 0 01.36.252l1.17 2.74a.416.416 0 01-.067.435l-1.019 1.179a.308.308 0 00-.039.344c1.342 2.585 3.788 3.61 4.518 3.866a.305.305 0 00.343-.102l1.066-1.383a.416.416 0 01.504-.123l2.716 1.252a.417.417 0 01.233.465z" fill="#FDD444"/><path d="M.693 0v35.46h35.46V0H.693zM18.44 30.085c-2.128 0-4.211-.544-6.054-1.579l-6.362 1.638 1.737-6.169a12.346 12.346 0 01-1.705-6.274c0-6.83 5.555-12.385 12.384-12.385 6.83 0 12.385 5.556 12.385 12.385 0 6.828-5.556 12.384-12.385 12.384z" fill="#FDD444"/></svg>