<svg width="15" height="15" fill="none" xmlns="http://www.w3.org/2000/svg"><path d="M7.507 3.137a4.355 4.355 0 00-4.35 4.35c0 .836.237 1.648.686 2.348l.108.168-.423 1.502 1.555-.4.16.098a4.34 4.34 0 002.264.635 4.355 4.355 0 004.35-4.35 4.355 4.355 0 00-4.35-4.35zm2.667 5.687l-.054.254a1.097 1.097 0 01-.478.697c-.31.199-.714.296-1.227.151-1.59-.45-2.49-1.503-2.973-2.161-.483-.658-.669-1.317-.548-1.854.08-.36.344-.637.509-.78a.411.411 0 01.292-.1l.34.018a.176.176 0 01.152.107l.496 1.158a.176.176 0 01-.03.185l-.43.498a.13.13 0 00-.017.146C6.774 8.236 7.81 8.67 8.118 8.778a.13.13 0 00.145-.043l.45-.585a.176.176 0 01.214-.052l1.149.53a.176.176 0 01.098.196z" fill="#121D46"/><path d="M0 0v15h15V0H0zm7.507 12.726c-.9 0-1.782-.23-2.561-.668l-2.692.693.735-2.61a5.223 5.223 0 01-.721-2.653 5.245 5.245 0 015.239-5.24 5.245 5.245 0 015.239 5.24 5.245 5.245 0 01-5.24 5.238z" fill="#121D46"/></svg>