<svg width="15" height="15" fill="none" xmlns="http://www.w3.org/2000/svg"><path d="M9.745 3.468c-1.49-.283-3-.283-4.49 0-.652.146-1.472.931-1.632 1.563a8.59 8.59 0 000 3.685c.16.632.98 1.418 1.632 1.563.03.006.05.03.05.06v1.792a.1.1 0 00.172.069l.85-.874.8-.82a.061.061 0 01.046-.02 11.91 11.91 0 002.572-.207c.652-.145 1.472-.93 1.632-1.563a8.58 8.58 0 000-3.685c-.16-.632-.98-1.417-1.632-1.563zm.023 5.34a1.38 1.38 0 01-.594.653c-.077.042-.17.055-.256.082-.1-.03-.196-.05-.285-.088-.918-.38-1.764-.873-2.434-1.626a6.316 6.316 0 01-.931-1.425c-.12-.243-.22-.496-.323-.747-.094-.228.044-.464.19-.637.136-.161.311-.285.501-.376.148-.072.294-.03.403.095.233.272.448.557.622.872.107.193.078.43-.116.562-.047.032-.09.07-.134.106a.44.44 0 00-.101.106.292.292 0 00-.02.257c.24.657.643 1.168 1.304 1.443.106.044.212.096.334.081.205-.023.27-.248.414-.365a.39.39 0 01.47-.02c.15.095.296.198.441.301.143.102.285.201.416.317.127.111.17.257.099.408zM8.582 6.665a.184.184 0 01-.013-.001c-.092-.003-.142-.057-.152-.145-.007-.065-.013-.13-.028-.192a.54.54 0 00-.2-.313.52.52 0 00-.162-.078c-.074-.022-.15-.016-.224-.034-.08-.02-.124-.084-.112-.16a.144.144 0 01.153-.115c.466.033.799.274.846.823a.353.353 0 01-.001.117.12.12 0 01-.107.098zm-.29-1.255a1.64 1.64 0 00-.455-.14c-.068-.01-.137-.018-.206-.027-.084-.012-.128-.065-.124-.147.004-.077.06-.132.144-.128.276.016.542.076.787.205.499.264.784.681.867 1.238.004.025.01.05.012.075l.012.208c-.002.015-.003.05-.012.083-.032.121-.215.136-.257.014a.363.363 0 01-.014-.116c0-.254-.056-.509-.184-.73a1.36 1.36 0 00-.57-.535zm1.54 1.72c-.096.001-.14-.08-.145-.166-.013-.17-.021-.342-.045-.512a2.147 2.147 0 00-1.73-1.795c-.133-.024-.27-.03-.407-.044-.085-.01-.198-.015-.217-.121-.016-.09.06-.161.145-.166h.07c1.154.033.07.003.003 0 1.2.035 2.186.833 2.397 2.02.036.202.049.41.065.615.007.086-.042.168-.135.17z" fill="#121D46"/><path d="M0 0v15h15V0H0zm12.244 8.913l-.003.011c-.24.969-1.32 2.008-2.312 2.225l-.011.002a12.885 12.885 0 01-3.131.209L5.69 12.499a.435.435 0 01-.748-.302v-1.08c-.955-.274-1.955-1.265-2.184-2.193l-.003-.012a9.465 9.465 0 010-4.077l.003-.012c.24-.968 1.32-2.008 2.312-2.224l.011-.002a12.847 12.847 0 014.836 0l.011.002c.992.216 2.072 1.256 2.312 2.224l.003.012a9.463 9.463 0 010 4.078z" fill="#121D46"/></svg>