<svg width="15" height="15" fill="none" xmlns="http://www.w3.org/2000/svg"><path d="M7.5 6.008c-.822 0-1.492.67-1.492 1.492s.67 1.492 1.492 1.492 1.492-.67 1.492-1.492-.67-1.492-1.492-1.492zm0 0c-.822 0-1.492.67-1.492 1.492s.67 1.492 1.492 1.492 1.492-.67 1.492-1.492-.67-1.492-1.492-1.492zm2.485-2.432h-4.97a1.44 1.44 0 00-1.439 1.44v4.969a1.44 1.44 0 001.44 1.439h4.969a1.44 1.44 0 001.439-1.44V5.016a1.44 1.44 0 00-1.44-1.439zM7.5 10.083A2.586 2.586 0 014.917 7.5 2.586 2.586 0 017.5 4.917 2.586 2.586 0 0110.083 7.5 2.586 2.586 0 017.5 10.083zm2.666-4.632a.612.612 0 11.002-1.224.612.612 0 01-.002 1.224zM7.5 6.008c-.822 0-1.492.67-1.492 1.492s.67 1.492 1.492 1.492 1.492-.67 1.492-1.492-.67-1.492-1.492-1.492zm2.485-2.432h-4.97a1.44 1.44 0 00-1.439 1.44v4.969a1.44 1.44 0 001.44 1.439h4.969a1.44 1.44 0 001.439-1.44V5.016a1.44 1.44 0 00-1.44-1.439zM7.5 10.083A2.586 2.586 0 014.917 7.5 2.586 2.586 0 017.5 4.917 2.586 2.586 0 0110.083 7.5 2.586 2.586 0 017.5 10.083zm2.666-4.632a.612.612 0 11.002-1.224.612.612 0 01-.002 1.224zM7.5 6.008c-.822 0-1.492.67-1.492 1.492s.67 1.492 1.492 1.492 1.492-.67 1.492-1.492-.67-1.492-1.492-1.492zM0 0v15h15V0H0zm12.515 9.985a2.533 2.533 0 01-2.53 2.53h-4.97a2.533 2.533 0 01-2.53-2.53v-4.97a2.533 2.533 0 012.53-2.53h4.97a2.533 2.533 0 012.53 2.53v4.97zm-2.53-6.409h-4.97a1.44 1.44 0 00-1.439 1.44v4.969a1.44 1.44 0 001.44 1.439h4.969a1.44 1.44 0 001.439-1.44V5.016a1.44 1.44 0 00-1.44-1.439zM7.5 10.083A2.586 2.586 0 014.917 7.5 2.586 2.586 0 017.5 4.917 2.586 2.586 0 0110.083 7.5 2.586 2.586 0 017.5 10.083zm2.666-4.632a.612.612 0 11.002-1.224.612.612 0 01-.002 1.224zM7.5 6.008c-.822 0-1.492.67-1.492 1.492s.67 1.492 1.492 1.492 1.492-.67 1.492-1.492-.67-1.492-1.492-1.492zm0 0c-.822 0-1.492.67-1.492 1.492s.67 1.492 1.492 1.492 1.492-.67 1.492-1.492-.67-1.492-1.492-1.492zm0 0c-.822 0-1.492.67-1.492 1.492s.67 1.492 1.492 1.492 1.492-.67 1.492-1.492-.67-1.492-1.492-1.492zm2.485-2.432h-4.97a1.44 1.44 0 00-1.439 1.44v4.969a1.44 1.44 0 001.44 1.439h4.969a1.44 1.44 0 001.439-1.44V5.016a1.44 1.44 0 00-1.44-1.439zM7.5 10.083A2.586 2.586 0 014.917 7.5 2.586 2.586 0 017.5 4.917 2.586 2.586 0 0110.083 7.5 2.586 2.586 0 017.5 10.083zm2.666-4.632a.612.612 0 11.002-1.224.612.612 0 01-.002 1.224zM7.5 6.008c-.822 0-1.492.67-1.492 1.492s.67 1.492 1.492 1.492 1.492-.67 1.492-1.492-.67-1.492-1.492-1.492zm0 0c-.822 0-1.492.67-1.492 1.492s.67 1.492 1.492 1.492 1.492-.67 1.492-1.492-.67-1.492-1.492-1.492zm0 0c-.822 0-1.492.67-1.492 1.492s.67 1.492 1.492 1.492 1.492-.67 1.492-1.492-.67-1.492-1.492-1.492zm2.485-2.432h-4.97a1.44 1.44 0 00-1.439 1.44v4.969a1.44 1.44 0 001.44 1.439h4.969a1.44 1.44 0 001.439-1.44V5.016a1.44 1.44 0 00-1.44-1.439zM7.5 10.083A2.586 2.586 0 014.917 7.5 2.586 2.586 0 017.5 4.917 2.586 2.586 0 0110.083 7.5 2.586 2.586 0 017.5 10.083zm2.666-4.632a.612.612 0 11.002-1.224.612.612 0 01-.002 1.224zM7.5 6.008c-.822 0-1.492.67-1.492 1.492s.67 1.492 1.492 1.492 1.492-.67 1.492-1.492-.67-1.492-1.492-1.492z" fill="#121D46"/></svg>