<svg width="33" height="29" fill="none" xmlns="http://www.w3.org/2000/svg"><path d="M10.668 19.279h17.415a.96.96 0 00.926-.7l3.856-13.495a.963.963 0 00-.926-1.228H8.442l-.689-3.1A.964.964 0 006.812 0H.964a.964.964 0 100 1.928h5.074L9.52 17.592a2.894 2.894 0 00-1.743 2.65 2.895 2.895 0 002.892 2.893h17.415a.963.963 0 100-1.928H10.668a.965.965 0 010-1.928zm-.964 6.748a2.895 2.895 0 002.892 2.891 2.895 2.895 0 002.892-2.891 2.895 2.895 0 00-2.892-2.892 2.895 2.895 0 00-2.892 2.892zm13.559 0a2.895 2.895 0 002.892 2.891 2.895 2.895 0 002.892-2.891 2.895 2.895 0 00-2.892-2.892 2.895 2.895 0 00-2.892 2.892z" fill="#FDD444"/></svg>