<svg width="51" height="51" fill="none" xmlns="http://www.w3.org/2000/svg"><path d="M51 18.646a.486.486 0 00-.243-.42l-5.038-2.91c1.53-2.187 3.18-4.547 3.624-5.15a.486.486 0 00.094-.268c.202-4.941-4.045-6.472-4.087-6.487a.487.487 0 00-.195-.025l-12.342.905a5.451 5.451 0 00-2.119.607l-6.12 3.197a5.46 5.46 0 00-1.6 1.262s-8.202 9.39-8.253 9.43l-5.04-2.91a.485.485 0 00-.486 0L1.884 20.1c-.15.087-.215.25-.243.421C1.477 21.522 0 30.249 0 30.355v8.22c0 .173.093.334.243.42l14.819 8.556a.484.484 0 00.485-.003v.002l4.823-2.784c.05.966.442 1.769 1.164 2.185.33.191.697.282 1.08.282 1.25 0 2.677-.97 3.608-2.584.56-.97.848-2.026.812-2.975a3.657 3.657 0 00-.092-.7l7.73-4.422c.073.957.478 1.693 1.153 2.083.33.19.697.281 1.08.281 1.251 0 2.677-.97 3.608-2.584.568-.984.837-2.007.819-2.902.166.675.531 1.197 1.062 1.504.331.19.698.281 1.08.281 1.252 0 2.677-.97 3.609-2.584.56-.97.848-2.026.812-2.975-.01-.24-.04-.468-.089-.68l.897-.518a.486.486 0 00.243-.421v-4.852l1.81-1.042a.486.486 0 00.244-.421v-3.076zM17.389 29.38l6.355-3.668v7.77l-7.723 4.459 1.368-8.56zm7.327-1.835l7.528-1.337a5.458 5.458 0 001.92-.733l6.857-4.234a5.466 5.466 0 001.444-1.294c.1-.128.542-.754 1.171-1.652l3.26 1.872-22.18 12.766v-5.388zm23.155-7.94l-3.675-2.11.965-1.379 4.38 2.53-1.67.96zM46.806 5.486C47.948 6.58 48.508 8 48.471 9.713c-.576.794-5.698 8.123-6.27 8.934a12.13 12.13 0 00-1.336-8.115 12.105 12.105 0 00-6.183-5.403l10.435-.766c.244.1.97.436 1.69 1.123zm-15.662.274c.29-.152.594-.27.905-.354l.315.06a11.142 11.142 0 017.651 5.538 11.133 11.133 0 01.743 9.245c-.08.057-.163.113-.248.166l-6.413 3.96a12.055 12.055 0 00-.703-9.298 12.06 12.06 0 00-7.993-6.318l5.743-3zm-6.938 3.745l.465.09a11.103 11.103 0 017.856 5.922 11.098 11.098 0 01.266 9.542c-.233.083-8.05 1.499-8.05 1.499v-1.703a.486.486 0 00-.243-.421l-1.566-.904a7.026 7.026 0 00-1.1-2.458 7.681 7.681 0 00-2.135-2.07c-1.01-.641-2.076-.943-3.043-.899 0 0 7.373-8.448 7.55-8.598zM21.688 22.81l-6.023-3.477c.943-.482 2.262-.305 3.513.489a6.71 6.71 0 012.51 2.988zm-12.25-5.95l13.847 7.994-6.34 3.66L3.098 20.52l6.34-3.66zm-6.897 4.46l13.872 8.009L15 38.174 1.071 30.132l1.47-8.812zM14.82 39.191v4.017L.972 35.214v-4.017l13.847 7.994zm-2.22 3.857v1.958l-9.257-5.343v-1.958l9.257 5.343zM.972 36.336l1.398.808V39.1l-1.398-.807v-1.958zm12.598 9.231V43.61l1.249.721v1.958l-1.249-.72zm6.898-1.98l-4.677 2.7v-7.091l7.983-4.592v4.756a3.84 3.84 0 00-.42.19c-.84.443-1.61 1.221-2.17 2.19a6.237 6.237 0 00-.716 1.848zm4.912.576c-.912 1.58-2.45 2.472-3.36 1.947-.91-.525-.907-2.303.005-3.884.47-.812 1.103-1.458 1.783-1.817.35-.185.686-.279.986-.279.219 0 .419.05.592.15.41.237.65.745.677 1.431.03.769-.213 1.64-.683 2.453zm14.292-8.316c-.913 1.58-2.452 2.471-3.361 1.946-.41-.237-.651-.745-.677-1.431-.03-.769.213-1.64.682-2.453.913-1.58 2.452-2.47 3.361-1.946.91.525.907 2.303-.005 3.884zm6.569-3.702c-.912 1.58-2.452 2.472-3.36 1.947-.411-.237-.652-.745-.678-1.431-.029-.769.214-1.64.683-2.453.47-.812 1.102-1.458 1.782-1.817.352-.185.687-.279.987-.279.219 0 .418.05.591.15.411.237.651.745.677 1.431.03.769-.213 1.64-.682 2.452zm1.733-4.389l-.548.317a2.103 2.103 0 00-.694-.653c-.71-.41-1.604-.37-2.517.112-.84.443-1.611 1.221-2.17 2.19a6.205 6.205 0 00-.719 1.872l-.425.246a2.12 2.12 0 00-.738-.719c-1.413-.815-3.472.196-4.688 2.303a6.16 6.16 0 00-.737 1.971l-8.183 4.68a2.1 2.1 0 00-.683-.637 2.135 2.135 0 00-1.127-.28v-2.045l23.23-13.369v4.012zm-23.228 8.236v-1.938l23.368-13.467 1.914-1.101v1.955l-25.282 14.55z" fill="#002F7D"/></svg>