<svg width="56" height="52" fill="none" xmlns="http://www.w3.org/2000/svg"><path d="M22.025 37.24h5.7a3 3 0 002.08-.86l18-18-14.94-14.95-18 18a2.892 2.892 0 00-.86 2.08v5.7a3.19 3.19 0 01-1.12 2.42l-10.78 9.13a5.95 5.95 0 00-.37 8.74 6 6 0 004.21 1.74h.24a5.93 5.93 0 004.29-2.09l9.14-10.78a3.15 3.15 0 012.41-1.13zm23.94-18.86l-6.42 6.47a4.12 4.12 0 01.41-5.31l.4-.39a2.5 2.5 0 00-3.53-3.54l-.41.4a1.72 1.72 0 01-2.4 0 1.68 1.68 0 01-.5-1.2 1.7 1.7 0 01.5-1.2l1.23-1.23a4.66 4.66 0 001.35-3.42l9.37 9.42zm-13.1-13.11l1.41 1.41a3.4 3.4 0 010 4.78l-1.23 1.23a3 3 0 000 4.24 3.06 3.06 0 004.24 0l.41-.4a1.23 1.23 0 011.69 0 1.21 1.21 0 010 1.7l-.4.4a5.4 5.4 0 00-.41 7.14l-1.94 1.94-13.09-13.09 9.32-9.35zm-10.26 10.25l13.11 13.1-2.54 2.54-13.11-13.1 2.54-2.54zm-3.46 3.46l13.11 13.11-.53.53-13.1-13.11.52-.53zM9.485 48.3a4.64 4.64 0 01-8.18-3.2 4.56 4.56 0 011.64-3.35l10.78-9.13a4.469 4.469 0 001.58-3.41v-5.7a1.629 1.629 0 01.48-1.16l1.92-1.92 13.1 13.11-1.92 1.92a1.65 1.65 0 01-1.16.48h-5.7a4.45 4.45 0 00-3.41 1.58L9.485 48.3z" fill="#002F7D"/><path d="M4.105 42.99a2.93 2.93 0 000 4.15 2.95 2.95 0 004.14 0 2.93 2.93 0 10-4.14-4.15zm3.22 3.23a1.63 1.63 0 11-2.3-2.31 1.599 1.599 0 011.15-.48 1.63 1.63 0 011.15 2.79zM52.175 0H9.065a3.12 3.12 0 00-3.12 3.12v30a.65.65 0 001.3 0v-30a1.82 1.82 0 011.82-1.82h43.11a1.82 1.82 0 011.82 1.82v15.29a3.23 3.23 0 01-3.22 3.23 5.66 5.66 0 00-5.65 5.65v11.45a1.85 1.85 0 11-3.69 0v-3.58a2.859 2.859 0 00-5.503-1.094 2.86 2.86 0 00-.217 1.094V46.8a1.84 1.84 0 11-3.68 0v-4.58a2.86 2.86 0 10-5.72 0v4.58a1.85 1.85 0 01-3.69 0v-3.18a2.49 2.49 0 00-2.48-2.48.65.65 0 000 1.3 1.18 1.18 0 011.18 1.18v3.18a3.15 3.15 0 006.29 0v-4.58a1.56 1.56 0 113.12 0v4.58a3.14 3.14 0 106.28 0V35.16a1.56 1.56 0 113.12 0v3.58a3.15 3.15 0 106.29 0V27.29a4.35 4.35 0 014.35-4.35 4.53 4.53 0 004.52-4.53V3.12A3.12 3.12 0 0052.175 0z" fill="#002F7D"/></svg>