<svg width="51" height="51" fill="none" xmlns="http://www.w3.org/2000/svg"><path d="M42.518 0H8.49a8.48 8.48 0 00-1.439 16.84v20.455a.902.902 0 101.805 0V16.952a8.488 8.488 0 008.118-8.466.903.903 0 10-1.806 0 6.638 6.638 0 01-1.4 4.077 6.03 6.03 0 00-5.811-7.687.903.903 0 000 1.806 4.239 4.239 0 01.268 8.469 6.675 6.675 0 01.268-13.346h34.025a6.675 6.675 0 01.268 13.346 4.239 4.239 0 01.265-8.47.903.903 0 000-1.805 6.03 6.03 0 00-5.815 7.686 6.638 6.638 0 01-1.4-4.077.903.903 0 00-.903-.903H21.171a.903.903 0 000 1.805h12.911a8.497 8.497 0 008.437 7.583c.09 0 .178-.011.268-.014.09-.003.178.014.268.014a.86.86 0 00.18-.037A8.482 8.482 0 0042.519 0zm4.522 44.748H6.368v-2.64h39.175a.902.902 0 100-1.805h-1.589V20.084a.903.903 0 10-1.805 0v20.22H5.466a.903.903 0 00-.903.902v3.542h-.595a.903.903 0 00-.903.903v4.445a.903.903 0 00.903.903H47.04a.903.903 0 00.903-.903v-4.445a.902.902 0 00-.903-.903zm-.902 4.446H4.87v-2.64h41.267v2.64z" fill="#002F7D"/><path d="M26.407 32.18V14.623a.903.903 0 00-1.806 0v17.555a.902.902 0 101.806 0zm-8.787 3.61V18.234a.902.902 0 00-1.805 0V35.79a.902.902 0 001.806 0zm17.573 0V18.234a.902.902 0 00-1.806 0V35.79a.902.902 0 001.806 0z" fill="#002F7D"/></svg>