<svg width="40" height="48" fill="none" xmlns="http://www.w3.org/2000/svg"><path d="M26.578 18.532h-8.185a.564.564 0 000 1.128h8.185a.564.564 0 100-1.128z" fill="#002F7D"/><path d="M25.137 1.632V.564L24.573 0H15.12l-.572.564v1.068C7.69 2.057 0 10.034 0 20.276a2.135 2.135 0 002.135 2.127h.183v.79l.564.564h1.475L6.224 48h27.229l1.857-24.243h1.484l.564-.564v-.79h.183a2.127 2.127 0 002.126-2.127c.052-10.242-7.681-18.219-14.53-18.644zm-9.452-.504h8.324v2.04h-8.324v-2.04zm-12.23 21.5v-1.58h.677l.121 1.58h-.798zm31.699-4.096h-4.34a.564.564 0 000 1.128h.434a5.21 5.21 0 00-1.98 4.08v11.284a1.425 1.425 0 01-2.846 0V22.801a2.146 2.146 0 00-2.14-2.28 2.143 2.143 0 00-2.14 2.28v2.604a1.424 1.424 0 11-2.846 0v-1.11a2.144 2.144 0 00-4.28 0v4.226a1.424 1.424 0 11-2.847 0v-4.87a5.112 5.112 0 00-1.918-3.992h3.16a.565.565 0 000-1.128H4.54a1.085 1.085 0 010-2.17h30.614a1.085 1.085 0 110 2.17zm-2.743 28.34H7.239L5.191 19.66h1.866a3.993 3.993 0 013.984 3.993v4.878a2.552 2.552 0 105.104 0v-4.227a1.015 1.015 0 012.022 0v1.11a2.552 2.552 0 005.104 0v-2.603a1.014 1.014 0 112.022 0v12.212a2.56 2.56 0 005.113 0V23.74a4.08 4.08 0 014.105-4.08l-2.1 27.212zm3.836-24.243h-.868l.122-1.58h.746v1.58zm1.311-1.355h-.182v-.746l-.564-.564h-1.19v-.313a2.214 2.214 0 00-.486-4.34H4.54a2.214 2.214 0 00-.486 4.34v.313H2.873l-.564.564v.79h-.182a1.007 1.007 0 01-1.007-.998c0-9.435 7.204-17.065 13.419-17.508v.99l.564.564h9.452l.565-.564v-.99c6.214.443 13.41 8.073 13.41 17.508a1.006 1.006 0 01-.98.954h.008z" fill="#002F7D"/></svg>