<svg width="64" height="64" fill="none" xmlns="http://www.w3.org/2000/svg"><g clip-path="url(#clip0)" fill="#002F7D"><path d="M17.352 38.246c-1.193 0-1.743-.51-2.275-1.002l-.099-.092a.5.5 0 10-.677.736l.097.09c.578.535 1.37 1.268 2.954 1.268a.5.5 0 100-1zm-4.15-1.41a.503.503 0 00-.634-.313c-2.14.723-5.336 1.375-7.954 1.621a.5.5 0 00.094.997c2.688-.253 5.975-.925 8.18-1.671a.5.5 0 00.314-.634zM32 38.246c-1.192 0-1.742-.509-2.273-1.002a.5.5 0 10-.68.734c.577.536 1.369 1.268 2.953 1.268a.5.5 0 100-1zm-4.118-1.41a.502.502 0 00-.634-.313c-2.125.718-5.325 1.37-7.964 1.619a.5.5 0 00.094.996c2.708-.257 6-.927 8.19-1.668a.5.5 0 00.314-.634zm18.766 1.41c-1.088 0-1.635-.418-2.145-.883a.499.499 0 10-.674.738c.606.554 1.374 1.145 2.82 1.145a.5.5 0 100-1zm-4.08-1.41a.501.501 0 00-.633-.313c-2.074.7-5.356 1.367-7.982 1.617a.501.501 0 00.047.998l.047-.002c2.738-.262 6.037-.931 8.208-1.666a.5.5 0 00.313-.634zm16.892.794c-.16-.126-.302-.259-.438-.386-.577-.533-1.23-1.136-2.463-.721-2.106.711-5.295 1.362-7.938 1.616a.5.5 0 00.047.998l.049-.002c2.71-.262 5.991-.93 8.161-1.665.645-.215.9-.016 1.464.508.154.143.316.292.496.435a.5.5 0 10.623-.783zm-41.21-6.383c-1.106 0-1.61-.466-2.096-.918a.5.5 0 00-.68.733c.54.5 1.277 1.185 2.776 1.185a.5.5 0 100-1zm-3.823-1.305a.502.502 0 00-.634-.314c-1.929.653-4.867 1.257-7.313 1.504a.5.5 0 00.101.995c2.512-.254 5.54-.877 7.532-1.552a.5.5 0 00.314-.633zM32 31.247c-1.008 0-1.515-.387-1.986-.817a.5.5 0 10-.674.738c.571.522 1.295 1.079 2.66 1.079a.5.5 0 100-1zm-3.827-1.305a.502.502 0 00-.634-.314c-1.934.655-4.878 1.26-7.324 1.506a.5.5 0 00.1.995c2.514-.252 5.546-.876 7.544-1.553a.5.5 0 00.314-.634zm17.577 1.305c-.984 0-1.494-.378-1.893-.732a.501.501 0 00-.664.749c.55.486 1.283.983 2.557.983a.5.5 0 100-1zm-3.823-1.305a.502.502 0 00-.634-.314c-1.937.656-4.887 1.262-7.343 1.508a.5.5 0 00.1.995c2.523-.253 5.563-.878 7.563-1.555a.5.5 0 00.314-.634zm15.67.565l-.212-.195c-.547-.506-1.164-1.081-2.342-.684-1.943.659-4.9 1.264-7.358 1.509a.5.5 0 10.1.995c2.525-.25 5.57-.876 7.578-1.556.611-.206.84.006 1.342.47l.228.21a.5.5 0 00.664-.748zm-38.507-5.26c-.942 0-1.4-.351-1.863-.775a.5.5 0 10-.676.736c.548.503 1.24 1.039 2.539 1.039a.5.5 0 100-1zm-3.614-1.2a.5.5 0 00-.633-.314c-1.806.608-4.525 1.172-6.764 1.402a.5.5 0 00.103.995c2.341-.24 5.081-.81 6.98-1.45a.5.5 0 00.314-.633zm16.532 1.2c-.915 0-1.389-.352-1.76-.682a.5.5 0 10-.664.748c.52.462 1.216.934 2.424.934a.5.5 0 100-1zm-3.581-1.2a.5.5 0 00-.634-.314c-1.793.604-4.517 1.166-6.779 1.4a.5.5 0 00.103.995c2.328-.24 5.14-.822 6.996-1.448a.5.5 0 00.314-.633zm16.499 1.2c-.824 0-1.27-.274-1.63-.57a.501.501 0 00-.635.773c.451.371 1.117.796 2.265.796a.5.5 0 100-1zm-3.542-1.2a.5.5 0 00-.634-.314c-1.78.599-4.512 1.162-6.802 1.399a.501.501 0 00.103.995c2.356-.245 5.176-.826 7.02-1.447a.499.499 0 00.313-.633zm14.618.443l-.123-.113c-.496-.458-1.112-1.028-2.23-.644-1.782.6-4.501 1.16-6.767 1.396a.501.501 0 00.103.995c2.331-.243 5.138-.823 6.984-1.444.53-.18.73-.032 1.23.431l.131.12a.5.5 0 10.672-.74zM19.75 20.247c-.861 0-1.294-.321-1.663-.65a.499.499 0 10-.665.746c.501.447 1.17.904 2.328.904a.5.5 0 100-1zm-3.398-1.12a.501.501 0 00-.634-.315c-1.704.574-4.181 1.09-6.31 1.317a.5.5 0 10.106.994c2.195-.233 4.755-.768 6.523-1.362a.5.5 0 00.315-.634zM32 20.247c-.78 0-1.206-.265-1.55-.552a.5.5 0 00-.64.767c.437.366 1.081.785 2.19.785a.5.5 0 100-1zm-3.365-1.119a.501.501 0 00-.633-.315c-1.669.56-4.218 1.09-6.343 1.317a.5.5 0 10.106.994c2.19-.234 4.824-.782 6.555-1.363a.5.5 0 00.315-.633zm15.615 1.119c-.732 0-1.143-.239-1.418-.446a.501.501 0 00-.602.8c.588.44 1.229.646 2.02.646a.5.5 0 100-1zm-3.324-1.119a.5.5 0 00-.634-.315c-1.65.554-4.198 1.082-6.345 1.313a.5.5 0 10.106.994c2.212-.238 4.847-.784 6.557-1.36a.5.5 0 00.316-.633zm13.725.3c-.473-.438-1.063-.982-2.138-.615-1.648.554-4.18 1.08-6.3 1.31a.5.5 0 10.107.995c2.22-.24 4.776-.774 6.514-1.358.488-.168.664-.037 1.14.405a.5.5 0 00.677-.737zM16.25 46.246c-1.296 0-1.893-.552-2.47-1.087-.611-.566-1.305-1.21-2.612-.765C8.197 45.398 3.31 46.246.5 46.246a.5.5 0 100 1c2.95 0 7.88-.854 10.988-1.905.746-.249 1.035.017 1.613.552.617.57 1.46 1.353 3.149 1.353a.5.5 0 100-1z"/><path d="M32 46.246c-1.296 0-1.893-.552-2.47-1.087-.61-.566-1.305-1.21-2.612-.765-2.971 1.004-7.857 1.852-10.668 1.852a.5.5 0 100 1c2.95 0 7.88-.854 10.988-1.905.745-.249 1.035.017 1.613.552.617.57 1.46 1.353 3.149 1.353a.5.5 0 100-1z"/><path d="M47.75 46.246c-1.297 0-1.893-.552-2.47-1.087-.611-.566-1.305-1.21-2.612-.765-2.97 1.004-7.856 1.852-10.668 1.852a.5.5 0 100 1c2.951 0 7.88-.854 10.988-1.905.742-.249 1.035.017 1.612.552.617.57 1.462 1.353 3.15 1.353a.5.5 0 100-1z"/><path d="M63.5 46.246c-1.297 0-1.893-.552-2.47-1.087-.612-.566-1.304-1.21-2.612-.765-2.97 1.004-7.857 1.852-10.668 1.852a.5.5 0 100 1c2.951 0 7.88-.854 10.988-1.905.743-.249 1.035.017 1.612.552.617.57 1.462 1.353 3.15 1.353a.5.5 0 100-1zm-47.25 2c-1.296 0-1.893-.553-2.47-1.087-.611-.566-1.305-1.21-2.612-.765C8.197 47.398 3.31 48.246.5 48.246a.5.5 0 100 1c2.95 0 7.88-.854 10.988-1.905.746-.249 1.035.017 1.613.552.617.57 1.46 1.353 3.149 1.353a.5.5 0 100-1z"/><path d="M32 48.246c-1.296 0-1.893-.553-2.47-1.087-.61-.566-1.305-1.21-2.612-.765-2.971 1.004-7.857 1.852-10.668 1.852a.5.5 0 100 1c2.95 0 7.88-.854 10.988-1.905.745-.249 1.035.017 1.613.552.617.57 1.46 1.353 3.149 1.353a.5.5 0 100-1z"/><path d="M47.75 48.246c-1.297 0-1.893-.553-2.47-1.087-.611-.566-1.305-1.21-2.612-.765-2.97 1.004-7.856 1.852-10.668 1.852a.5.5 0 100 1c2.951 0 7.88-.854 10.988-1.905.742-.249 1.035.017 1.612.552.617.57 1.462 1.353 3.15 1.353a.5.5 0 100-1z"/><path d="M63.5 48.246c-1.297 0-1.893-.553-2.47-1.087-.612-.566-1.304-1.21-2.612-.765-2.97 1.004-7.857 1.852-10.668 1.852a.5.5 0 100 1c2.951 0 7.88-.854 10.988-1.905.743-.249 1.035.017 1.612.552.617.57 1.462 1.353 3.15 1.353a.5.5 0 100-1zm-43.25-32c-.917 0-1.324-.377-1.755-.777-.458-.425-1.03-.952-2.076-.598-2.219.745-5.846 1.375-7.92 1.375a.5.5 0 100 1c2.2 0 5.896-.64 8.24-1.427.46-.158.626-.034 1.076.383.475.44 1.126 1.044 2.435 1.044a.5.5 0 100-1z"/><path d="M32 16.246c-.917 0-1.324-.377-1.755-.777-.458-.425-1.03-.952-2.076-.598-2.219.745-5.845 1.375-7.919 1.375a.5.5 0 100 1c2.2 0 5.895-.64 8.239-1.427.461-.158.626-.034 1.076.383.475.44 1.126 1.044 2.435 1.044a.5.5 0 100-1z"/><path d="M43.75 16.247c-.918 0-1.326-.378-1.758-.779-.459-.424-1.03-.953-2.073-.597-2.219.746-5.845 1.376-7.919 1.376a.5.5 0 100 1c2.2 0 5.895-.64 8.24-1.429.458-.156.623-.032 1.072.384.477.441 1.13 1.045 2.438 1.045a.5.5 0 100-1z"/><path d="M55.5 16.247c-.918 0-1.326-.378-1.758-.779-.459-.424-1.027-.953-2.073-.597-2.219.746-5.845 1.376-7.919 1.376a.5.5 0 100 1c2.2 0 5.895-.64 8.24-1.429.46-.156.623-.032 1.072.384.477.441 1.13 1.045 2.438 1.045a.5.5 0 100-1zm-46.871.017a.502.502 0 00-.612.354l-8 30a.5.5 0 00.966.257l8-30a.5.5 0 00-.354-.611z"/><path d="M63.983 46.617l-8-30a.499.499 0 10-.965.258l8 30a.499.499 0 10.965-.258zm-4.918-1.861l-6.75-29.522a.499.499 0 10-.974.223l6.75 29.521a.5.5 0 00.974-.222zM40.576 15.299a.5.5 0 00-.996.093l2.75 29.521a.5.5 0 00.498.454c.016 0 .031 0 .047-.002a.5.5 0 00.451-.544L40.576 15.3zm-12.226-.453a.507.507 0 00-.521.478l-1.25 29.522a.5.5 0 00.478.521h.022a.5.5 0 00.498-.478l1.25-29.523a.5.5 0 00-.478-.52zm-11.684.007a.497.497 0 00-.58.405l-5.25 29.521a.5.5 0 10.984.176l5.25-29.522a.5.5 0 00-.404-.58zm3.65 1.398a.502.502 0 00-.561.43l-4 29.999a.5.5 0 00.99.133l4-30a.5.5 0 00-.429-.562zM32 16.247a.5.5 0 00-.5.5v29.999a.5.5 0 101 0v-30a.5.5 0 00-.5-.5zM48.246 46.68l-4-30a.5.5 0 00-.992.132l4 30a.5.5 0 00.992-.133z"/><path d="M63.5 46.246a.5.5 0 00-.5.5v2a.5.5 0 101 0v-2a.5.5 0 00-.5-.5zm-63 0a.5.5 0 00-.5.5v2a.5.5 0 101 0v-2a.5.5 0 00-.5-.5z"/></g><defs><clipPath id="clip0"><path fill="#fff" d="M0 0h64v64H0z"/></clipPath></defs></svg>