<svg width="45" height="55" fill="none" xmlns="http://www.w3.org/2000/svg"><path d="M26.698 40.128a.69.69 0 00-1.044.436l-1.383 6.353a5.365 5.365 0 004.461 6.441 5.359 5.359 0 006.011-4.163l.651-2.993a.69.69 0 00-.303-.729l-8.393-5.345zm6.697 8.774a3.979 3.979 0 11-7.776-1.692l1.172-5.386 7.153 4.554-.55 2.524zm-7.402-26.298l.86 13.71a.69.69 0 00.307.53l8.512 5.657a.69.69 0 001.013-.294l4.353-9.778a.92.92 0 00.016-.037c1.83-4.852 2.587-9.106 2.248-12.645-.29-3.011-1.387-5.462-3.175-7.086-2.196-1.995-5.283-2.547-7.691-1.378-.242.1-1.742.758-3.235 2.366-1.458 1.57-3.198 4.39-3.209 8.91l.001.045zm4.173-7.966c1.382-1.51 2.788-2.076 2.8-2.08a.641.641 0 00.055-.025c1.588-.78 4.114-.727 6.178 1.149 3.52 3.197 3.727 9.832.57 18.203L35.757 40.9l-7.547-5.015-.837-13.345c.012-3.232.952-5.89 2.794-7.902zM14.61 30.492a.69.69 0 00-.637-.04l-9.09 4.045a.69.69 0 00-.408.676l.201 3.057a5.359 5.359 0 0010.694-.704l-.428-6.489a.69.69 0 00-.332-.545zM13.015 40.5a3.978 3.978 0 01-6.963-2.36l-.17-2.577 7.748-3.447.362 5.5a3.953 3.953 0 01-.977 2.884zM.929 20.717l2.86 10.314a.69.69 0 00.957.44l9.256-4.334a.69.69 0 00.382-.48l2.878-13.432a.683.683 0 00.008-.044c.658-4.472-.646-7.519-1.856-9.287-1.24-1.811-2.625-2.684-2.85-2.818-2.208-1.513-5.343-1.424-7.81.225C2.747 2.643 1.299 4.905.567 7.84c-.859 3.449-.74 7.768.354 12.837a.395.395 0 00.009.039zM5.52 2.447c2.319-1.55 4.825-1.228 6.28-.222a.504.504 0 00.049.031c.013.008 1.32.776 2.463 2.473 1.524 2.263 2.06 5.03 1.595 8.229l-2.802 13.074L4.9 29.875l-2.636-9.509C.38 11.621 1.567 5.09 5.52 2.448z" fill="#002F7D"/></svg>