<svg width="54" height="56" fill="none" xmlns="http://www.w3.org/2000/svg"><path d="M53.303 46.71l-13.87-13.87a1.29 1.29 0 00-1.83 0l-2.21 2.21-7.08-7.08a2.28 2.28 0 010-3.21l14.56-14.56a3.44 3.44 0 000-4.87l-3.26-3.26a3.51 3.51 0 00-4.87 0l-.32.31L32.043 0l-2.33.94a2.49 2.49 0 00-3 .35l-26 26a2.43 2.43 0 000 3.44l6.25 6.25a2.41 2.41 0 003.44 0l26-26a2.42 2.42 0 00.35-3l.94-2.32-2.38-2.38.31-.31a2.19 2.19 0 013 0l3.26 3.26a2.13 2.13 0 01.63 1.51 2.16 2.16 0 01-.63 1.52l-14.56 14.56a3.58 3.58 0 000 5l7.08 7.08-2.21 2.2a1.33 1.33 0 000 1.84l13.88 13.87a1.29 1.29 0 001.83 0l5.33-5.34a1.29 1.29 0 000-1.83l.07.07zM9.493 36.09a1.17 1.17 0 01-1.6 0l-6.25-6.26a1.131 1.131 0 010-1.6l26-26a1.12 1.12 0 01.8-.33c.3.002.587.12.8.33l6.25 6.25a1.15 1.15 0 010 1.61l-26 26zm26.32-29.16l-5-5 .94-.39 4.47 4.47-.41.92zm2.71 26.78l1.15 1.15-5.34 5.33-1.15-1.15 5.34-5.33zm8.53 19.2l-11.8-11.8 5.33-5.33 11.8 11.79-5.33 5.34z" fill="#002F7D"/><path d="M22.82 9.384L3.53 28.674l.919.919 19.29-19.29-.92-.92zM25 7.252l-.799.8.92.919.798-.8L25 7.253zm18.513 6.118v5.52a2.24 2.24 0 01-2.23 2.24h-1.11a2.74 2.74 0 00-2.74 2.73v.85a6.2 6.2 0 01-3.08 5.35.64.64 0 00-.24.88.64.64 0 00.89.24 7.5 7.5 0 003.74-6.47v-.85a1.44 1.44 0 011.44-1.43h1.11a3.54 3.54 0 003.53-3.54v-5.52a.65.65 0 10-1.3 0h-.01zM28.384 33.44a9.4 9.4 0 00-2.53 6.43v12.21a2 2 0 01-.57 1.4 2.05 2.05 0 01-1.41.58 2 2 0 01-2-2V38.57a2.379 2.379 0 00-2.41-2.36 2.32 2.32 0 00-2.31 2.31v7.93a2 2 0 01-4 0v-4.12a2.36 2.36 0 00-4.72 0v7.88a2 2 0 01-.58 1.41 1.93 1.93 0 01-1.39.57 2 2 0 01-2-2V38.71a.65.65 0 10-1.3 0v11.5a3.28 3.28 0 003.28 3.28 3.28 3.28 0 003.27-3.28v-7.88a1.06 1.06 0 012.12 0v4.12a3.28 3.28 0 003.28 3.27 3.18 3.18 0 002.31-1 3.25 3.25 0 001-2.31v-7.93a1 1 0 011-1 1.07 1.07 0 011.07 1.06v13.52a3.28 3.28 0 006.55 0V39.87a8.14 8.14 0 012.18-5.55.66.66 0 000-.92.65.65 0 00-.84.04z" fill="#002F7D"/></svg>