<svg width="55" height="48" fill="none" xmlns="http://www.w3.org/2000/svg"><path d="M17.388 37.33a2.7 2.7 0 100 5.4 2.7 2.7 0 000-5.4zm0 4.1a1.4 1.4 0 110-2.8 1.4 1.4 0 010 2.8z" fill="#002F7D"/><path d="M47.758 6.3l-7.33 22.39-1.63.75 2.13-9.36a2.46 2.46 0 001.91-2.39 2.44 2.44 0 00-2.1-2.42l-7.33-9.57a3 3 0 00-4.77-.06l-2 2.43-6.08-7a3 3 0 00-4.65.07l-11.45 14.1h-2a2.45 2.45 0 00-.39 4.87l8.32 13.28 1.1-.69-7.86-12.55h26.31a.65.65 0 100-1.3H2.478a1.16 1.16 0 110-2.31h8.09a.65.65 0 100-1.3h-4.42l10.79-13.28a1.74 1.74 0 012.66 0l6.22 7.19-2.73 3.37a.65.65 0 00.09.91.66.66 0 00.92-.09l5.54-6.83a1.61 1.61 0 011.37-.64 1.7 1.7 0 011.36.68l6.69 8.73h-25.19a.65.65 0 100 1.3h26.52a1.16 1.16 0 010 2.31h-5.36a.65.65 0 100 1.3h4.54l-2.27 10-13.28 6.12a7.78 7.78 0 10.54 1.18l3.16-1.45 5 9.66a1.34 1.34 0 001.19.72h.17a1.31 1.31 0 001.14-1l3.25-14.28 3.05-1.41 7.21-22h6v-1.3l-6.97-.13zm-30.37 40.07a6.34 6.34 0 110-12.68 6.34 6.34 0 010 12.68zm16.46-1.33l-4.94-9.61 8-3.7-3.06 13.31z" fill="#002F7D"/></svg>