<svg width="57" height="50" fill="none" xmlns="http://www.w3.org/2000/svg"><path d="M55.06 22.53h1.298l-3.042-13.8H43.57v1.319h8.69l2.484 11.154H44.2v-3.174h2.85l-5.243-5V4.463h-5.638v3.133L28.21 0l-9.126 8.73H3.042L0 22.53h1.308v25.756h10.86V50H44.24v-1.714H55.1l-.04-25.755zm-1.318 0v21.295H44.2V22.53h9.542zM37.437 5.78h3.042v5.972l-3.042-2.9V5.78zm6.317 10.91h-31.19L28.158 1.805 43.754 16.69zM4.097 10.05h13.526l-8.345 7.98h2.85v3.204H1.601L4.096 10.05zm8.03 12.482v21.294H2.586V22.53h9.541zM2.586 46.968v-1.866h9.541v1.866H2.586zm28.696 1.714h-6.267v-9.258h6.236l.03 9.258zm1.318 0V38.106h-8.873v10.576H13.446V18.029H42.85v30.653H32.6zm11.6-1.714v-1.866h9.542v1.866H44.2z" fill="#002F7D"/><path d="M17.177 26.283h5.07v-5.07h-5.07v5.07zm1.318-3.752h2.464v2.434h-2.433l-.03-2.434zm7.129 3.752h5.07v-5.07h-5.07v5.07zm1.318-3.752h2.444v2.434h-2.444V22.53zm12.208-1.318h-5.07v5.07h5.07v-5.07zm-1.318 3.752h-2.444V22.53h2.444v2.434zm-20.655 9.998h5.07v-5.07h-5.07v5.07zm1.318-3.762h2.464v2.444h-2.433l-.03-2.444zm7.129 3.762h5.07v-5.07h-5.07v5.07zm1.318-3.752h2.444v2.434h-2.444V31.21zm12.208-1.328h-5.07v5.07h5.07v-5.07zm-1.318 3.762h-2.444V31.21h2.444v2.434zM35.064 45.69h5.07v-5.07h-5.07v5.07zm1.318-3.751h2.444v2.454h-2.444v-2.454zM16.183 45.69h5.07v-5.07h-5.07v5.07zm1.319-3.751h2.443v2.454h-2.433l-.01-2.454zM51.51 25.066h-5.07v5.07h5.07v-5.07zm-1.317 3.752h-2.444v-2.434h2.444v2.434zm1.317 10.048v-5.07h-5.07v5.07h5.07zm-3.761-3.762h2.444v2.444h-2.444v-2.444zM9.886 25.066h-5.07v5.07h5.07v-5.07zm-1.318 3.752H6.135v-2.434h2.433v2.434zm1.318 10.048v-5.07h-5.07v5.07h5.07zm-3.751-3.762h2.433v2.444H6.135v-2.444z" fill="#002F7D"/></svg>