<svg width="51" height="51" fill="none" xmlns="http://www.w3.org/2000/svg"><path d="M46.602 4.052A13.745 13.745 0 0036.82 0c-3.696 0-7.17 1.44-9.783 4.052a13.836 13.836 0 00-1.881 17.227L1.218 45.216a2.988 2.988 0 000 4.22 2.965 2.965 0 002.11.874c.797 0 1.547-.31 2.11-.874l2.572-2.571 3.26 3.26a2.965 2.965 0 002.11.875 2.96 2.96 0 002.11-.874 2.987 2.987 0 000-4.22l-1.726-1.727 1.919-1.918 1.726 1.726a2.964 2.964 0 002.11.875c.797 0 1.547-.31 2.11-.875a2.964 2.964 0 00.874-2.11c0-.797-.31-1.546-.874-2.11l-3.261-3.26 11.007-11.008a13.738 13.738 0 007.445 2.17c3.696 0 7.17-1.438 9.782-4.051a13.745 13.745 0 004.052-9.783c0-3.695-1.439-7.17-4.052-9.783zm-1.15 18.415a12.124 12.124 0 01-8.63 3.575 12.12 12.12 0 01-7.075-2.256.814.814 0 00-1.048.087L16.642 35.931a.814.814 0 000 1.151l3.836 3.837c.256.256.397.596.397.959 0 .362-.14.703-.397.959a1.347 1.347 0 01-.959.397c-.362 0-.703-.141-.96-.397l-2.301-2.302a.814.814 0 00-1.151 0l-3.07 3.069a.814.814 0 000 1.15l2.303 2.303a1.358 1.358 0 01-1.918 1.918l-3.837-3.837a.811.811 0 00-1.15 0l-3.148 3.148a1.348 1.348 0 01-.959.397 1.358 1.358 0 01-.96-2.315l24.413-24.413a.814.814 0 00.087-1.047 12.163 12.163 0 011.32-15.705 12.128 12.128 0 018.632-3.575c3.26 0 6.326 1.27 8.632 3.575a12.127 12.127 0 013.575 8.632c0 3.26-1.27 6.326-3.576 8.632z" fill="#002F7D"/><circle cx="37" cy="14" r="7.25" stroke="#002F7D" stroke-width="1.5"/></svg>