<svg width="56" height="38" fill="none" xmlns="http://www.w3.org/2000/svg"><path d="M54.024 28.55a3.74 3.74 0 00-1.43-.73c0-.44.05-.9.05-1.38a25 25 0 00-19.56-24.36c-.19-.57-.39-1.12-.6-1.66l-.16-.42h-9.26l-.16.42c-.2.54-.4 1.09-.6 1.66a25 25 0 00-19.55 24.36v1.38a3.67 3.67 0 00.19 7.15c16.34 2.92 33.07 2.92 49.41 0a3.67 3.67 0 001.62-6.42h.05zm-1.88 5.14a138.829 138.829 0 01-48.9 0 2.36 2.36 0 01-1-4.14 2.32 2.32 0 011.93-.5c2.12.39 4.42.74 6.84 1a.65.65 0 00.15-1.29c-2.39-.28-4.66-.62-6.75-1a2.432 2.432 0 00-.27 0c0-.42-.05-.85-.05-1.31a23.76 23.76 0 0112.67-20.94l-2.62 10.75a5.25 5.25 0 01-3.85 3.86l-3.28.8a.66.66 0 00.16 1.29h.15l3.28-.81a6.54 6.54 0 004.8-4.82l2.88-11.77a22.93 22.93 0 013.58-1.24 166.641 166.641 0 00-4.77 21.44.65.65 0 101.28.19c0-.15 2.23-14.71 5.63-23.87h7.47c3.39 9.16 5.6 23.72 5.63 23.87a.64.64 0 00.64.55h.09a.66.66 0 00.55-.74 168.492 168.492 0 00-4.79-21.46 22.93 22.93 0 013.58 1.24l2.85 11.76a6.55 6.55 0 004.81 4.82l3.27.81h.16a.65.65 0 00.552-.993.66.66 0 00-.402-.297l-3.27-.8a5.23 5.23 0 01-3.85-3.86l-2.63-10.75a23.74 23.74 0 0112.67 20.94v1.31a2.432 2.432 0 00-.27 0c-.75.14-1.6.29-2.57.44a.65.65 0 00-.54.74.63.63 0 00.74.54c1-.15 1.85-.3 2.61-.44a2.33 2.33 0 011.93.5 2.37 2.37 0 01-1.05 4.14l-.04.04z" fill="#121D46"/><path d="M40.084 29.18c-8.48.692-17.003.668-25.48-.07a.66.66 0 00-.71.59.65.65 0 00.59.71c4.25.38 8.7.58 13.21.58 4.27 0 8.47-.18 12.5-.52a.65.65 0 10-.11-1.29zm5.58-.63l-1.46.18a.64.64 0 00-.57.72.66.66 0 00.64.58h.08l1.47-.18a.65.65 0 00.56-.73.64.64 0 00-.72-.57z" fill="#121D46"/></svg>